<svg xmlns="http://www.w3.org/2000/svg" viewBox="0 0 796.34 570.17"><defs><style>.cls-1{fill:#0f2032;}.cls-2{fill:#c9973b;}</style></defs><title>Ativo 5</title><g id="Camada_2" data-name="Camada 2"><g id="Camada_1-2" data-name="Camada 1"><path class="cls-1" d="M59.12,419.57v52.16H53.9c-2.32,0-3.47-1.16-3.47-3.48V430.36L29.56,455.21,8.69,430.36v37.89q0,3.48-3.47,3.48H0V419.57H8.69l20.87,24.85,20.87-24.85Z"/><path class="cls-1" d="M95.71,419.57H87L62.67,471.73h5.14A5.42,5.42,0,0,0,73,468.25l18.4-39.48,18.4,39.48a5.42,5.42,0,0,0,5.15,3.48h5.14Z"/><path class="cls-1" d="M483.71,419.57H475l-24.35,52.16h5.15a5.41,5.41,0,0,0,5.14-3.48l18.4-39.48,18.41,39.48a5.4,5.4,0,0,0,5.14,3.48h5.14Z"/><path class="cls-1" d="M772,419.57h-8.69L739,471.73h5.15a5.41,5.41,0,0,0,5.14-3.48l18.4-39.48,18.41,39.48a5.4,5.4,0,0,0,5.14,3.48h5.14Z"/><path class="cls-1" d="M157.7,449.1h1.56c9.82,0,14.77-4.89,14.77-14.77s-4.95-14.77-14.77-14.77H123.58v52.17h5.25c2.29,0,3.44-1.15,3.44-3.49V426.53h25.22c5.25,0,7.85,2.6,7.85,7.8s-2.6,7.86-7.85,7.86H141.83l21.69,26.05c2,2.34,4.06,3.49,6.4,3.49h6.71Z"/><path class="cls-1" d="M547.06,449.1h1.56c9.83,0,14.77-4.89,14.77-14.77s-4.94-14.77-14.77-14.77H512.94v52.17h5.25c2.29,0,3.44-1.15,3.44-3.49V426.53h25.22c5.25,0,7.85,2.6,7.85,7.8s-2.6,7.86-7.85,7.86H531.19l21.69,26.05c2,2.34,4.06,3.49,6.4,3.49H566Z"/><path class="cls-1" d="M228.58,468.25v3.48h-31.3q-18.25,0-18.26-18.26V437.83q0-18.27,18.26-18.26h30.43v3.48q0,3.46-3.48,3.47H199q-11.31,0-11.3,11.31v15.64q0,11.31,11.3,11.3H225.1C227.42,464.77,228.58,465.94,228.58,468.25Z"/><path class="cls-1" d="M241.91,423.05v48.68h-5.22q-3.48,0-3.48-3.48V419.57h5.22Q241.91,419.57,241.91,423.05Z"/><path class="cls-1" d="M296,468.25v3.48H249.08V419.57h5.21q3.48,0,3.48,3.48v41.72h34.78C294.87,464.77,296,465.94,296,468.25Z"/><path class="cls-1" d="M308.27,423.05v48.68h-5.22q-3.46,0-3.47-3.48V419.57h5.21Q308.27,419.57,308.27,423.05Z"/><path class="cls-1" d="M368.62,437.83v15.64q0,18.27-18.26,18.26H333q-18.27,0-18.26-18.26V437.83q0-18.27,18.26-18.26h17.38Q368.61,419.57,368.62,437.83Zm-8.69,0q0-11.31-11.31-11.31H334.71q-11.29,0-11.3,11.31v15.64q0,11.31,11.3,11.3h13.91q11.31,0,11.31-11.3Z"/><path class="cls-1" d="M450.34,457.6q0,14.13-14.13,14.13h-38V419.57h37.17q14.11,0,14.12,14.13c0,6-2.1,9.92-6.16,11.81C448,447.17,450.34,451.23,450.34,457.6Zm-43.47-15.43H433q7.83,0,7.83-7.82T433,426.52H406.87ZM441.65,457q0-7.81-7.83-7.82H406.87v15.64h26.95Q441.65,464.77,441.65,457Z"/><path class="cls-1" d="M621.69,457.6q0,14.13-14.13,14.13h-38V419.57h37.17q14.12,0,14.13,14.13c0,6-2.11,9.92-6.16,11.81C619.29,447.17,621.69,451.23,621.69,457.6Zm-43.48-15.43H604.3q7.82,0,7.82-7.82t-7.82-7.83H578.21ZM613,457q0-7.81-7.83-7.82H578.21v15.64h26.95Q613,464.77,613,457Z"/><path class="cls-1" d="M680.59,437.83v15.64q0,18.27-18.26,18.26H644.94q-18.26,0-18.26-18.26V437.83q0-18.27,18.26-18.26h17.39Q680.59,419.57,680.59,437.83Zm-8.7,0q0-11.31-11.3-11.31H646.68q-11.29,0-11.3,11.31v15.64q0,11.31,11.3,11.3h13.91q11.29,0,11.3-11.3Z"/><path class="cls-1" d="M737.75,457q0,14.79-14.79,14.78H686.45v-3.48c0-2.31,1.16-3.48,3.48-3.48h31.3q7.82,0,7.82-7.82t-7.82-7.82H700.36q-14.77,0-14.78-14.78t14.78-14.78H736v3.48q0,3.46-3.48,3.47H702.1q-7.83,0-7.83,7.83t7.83,7.82H723Q737.75,442.17,737.75,457Z"/><path class="cls-2" d="M16.89,517.81a23.64,23.64,0,0,1-9-1.54,11.88,11.88,0,0,1-5.63-4.54,13.34,13.34,0,0,1-1.93-7.38v-2.27a13.49,13.49,0,0,1,1.93-7.43,11.56,11.56,0,0,1,5.63-4.52,24.19,24.19,0,0,1,9.06-1.5,22.17,22.17,0,0,1,7.25,1.16,13.6,13.6,0,0,1,5.53,3.42,9.57,9.57,0,0,1,2.62,5.39l-5.56.53a6.8,6.8,0,0,0-.32-1,8.33,8.33,0,0,0-.45-.95,7.87,7.87,0,0,0-3.46-3.59,12.51,12.51,0,0,0-5.78-1.19,14.11,14.11,0,0,0-5.85,1.09,7.69,7.69,0,0,0-3.63,3.22,10.27,10.27,0,0,0-1.21,5.17v2.68a10.08,10.08,0,0,0,1.23,5.2,7.82,7.82,0,0,0,3.61,3.16A14.08,14.08,0,0,0,16.76,514a12.7,12.7,0,0,0,5.94-1.26,7.35,7.35,0,0,0,3.47-3.81c.13-.32.25-.67.36-1s.2-.72.28-1.08l5.64.57a10.59,10.59,0,0,1-2.66,5.88,12.63,12.63,0,0,1-5.49,3.44A23.54,23.54,0,0,1,16.89,517.81Z"/><path class="cls-2" d="M64.87,517.81a27.34,27.34,0,0,1-9.16-1.34,11.17,11.17,0,0,1-5.65-4.13,12.21,12.21,0,0,1-1.93-7.1v-4.05a12.24,12.24,0,0,1,1.93-7.13A11,11,0,0,1,55.71,490a27.64,27.64,0,0,1,9.16-1.32A27.41,27.41,0,0,1,74,490a11.27,11.27,0,0,1,5.68,4.11,12,12,0,0,1,2,7.09v4.09a12.14,12.14,0,0,1-1.94,7.1A11.35,11.35,0,0,1,74,516.47,27.38,27.38,0,0,1,64.87,517.81Zm0-3.81a16.61,16.61,0,0,0,6-1,7.45,7.45,0,0,0,3.69-2.92,9.13,9.13,0,0,0,1.26-5v-3.77a9.28,9.28,0,0,0-1.26-5.06,7.43,7.43,0,0,0-3.69-2.94,16.61,16.61,0,0,0-6-1,16.6,16.6,0,0,0-6,1,7.47,7.47,0,0,0-3.67,2.94,9.38,9.38,0,0,0-1.26,5.1v3.73a9.13,9.13,0,0,0,1.26,5,7.46,7.46,0,0,0,3.71,2.92A16.67,16.67,0,0,0,64.87,514Z"/><path class="cls-2" d="M128.81,497.42a7.49,7.49,0,0,1-1.19,4.2,7.64,7.64,0,0,1-3.51,2.77,14.13,14.13,0,0,1-5.51,1H104.86v12H99.07V489h19.25a14.42,14.42,0,0,1,5.65,1,8.14,8.14,0,0,1,3.59,2.79,7.37,7.37,0,0,1,1.25,4.28Zm-5.67-.36a3.91,3.91,0,0,0-1.44-3.2,6.17,6.17,0,0,0-4-1.18H104.86v9.08h12.77a6.22,6.22,0,0,0,4-1.2,3.9,3.9,0,0,0,1.48-3.22Zm-1.34,20.3-8.71-13.13,5.23-.77,9.64,13.9Z"/><path class="cls-2" d="M175.25,497.42a7.49,7.49,0,0,1-1.19,4.2,7.64,7.64,0,0,1-3.51,2.77,14.13,14.13,0,0,1-5.51,1H151.3v12h-5.79V489h19.25a14.42,14.42,0,0,1,5.65,1,8.14,8.14,0,0,1,3.59,2.79,7.37,7.37,0,0,1,1.25,4.28Zm-5.67-.36a3.91,3.91,0,0,0-1.44-3.2,6.17,6.17,0,0,0-4-1.18H151.3v9.08h12.77a6.22,6.22,0,0,0,4-1.2,3.9,3.9,0,0,0,1.48-3.22Zm-1.34,20.3-8.71-13.13,5.23-.77,9.64,13.9Z"/><path class="cls-2" d="M192,517.36V489h27.47v3.77H197.7v7.82h18v3.57h-18v9.44h22.45v3.77Z"/><path class="cls-2" d="M247.38,517.36V492.88h-12V489h29.86v3.89h-12v24.48Z"/><path class="cls-2" d="M295.24,517.81a27.38,27.38,0,0,1-9.16-1.34,11.21,11.21,0,0,1-5.65-4.13,12.28,12.28,0,0,1-1.93-7.1v-4.05a12.32,12.32,0,0,1,1.93-7.13,11.07,11.07,0,0,1,5.65-4.11,32.37,32.37,0,0,1,18.3,0,11.29,11.29,0,0,1,5.67,4.11,12,12,0,0,1,2,7.09v4.09a12.14,12.14,0,0,1-1.95,7.1,11.26,11.26,0,0,1-5.67,4.13A27.38,27.38,0,0,1,295.24,517.81Zm0-3.81a16.63,16.63,0,0,0,6-1,7.49,7.49,0,0,0,3.69-2.92,9.21,9.21,0,0,0,1.25-5v-3.77a9.37,9.37,0,0,0-1.25-5.06,7.47,7.47,0,0,0-3.69-2.94,19.49,19.49,0,0,0-12,0,7.44,7.44,0,0,0-3.66,2.94,9.38,9.38,0,0,0-1.26,5.1v3.73a9.13,9.13,0,0,0,1.26,5,7.43,7.43,0,0,0,3.7,2.92A16.71,16.71,0,0,0,295.24,514Z"/><path class="cls-2" d="M359.19,497.42a7.42,7.42,0,0,1-1.2,4.2,7.56,7.56,0,0,1-3.5,2.77,14.13,14.13,0,0,1-5.51,1H335.24v12h-5.8V489h19.25a14.39,14.39,0,0,1,5.65,1,8.09,8.09,0,0,1,3.59,2.79,7.3,7.3,0,0,1,1.26,4.28Zm-5.68-.36a3.9,3.9,0,0,0-1.43-3.2,6.2,6.2,0,0,0-4-1.18h-12.8v9.08H348a6.24,6.24,0,0,0,4-1.2,3.92,3.92,0,0,0,1.47-3.22Zm-1.33,20.3-8.71-13.13,5.22-.77,9.65,13.9Z"/><path class="cls-2" d="M399.75,517.36V489h16.33a21.11,21.11,0,0,1,8.61,1.5,10.41,10.41,0,0,1,4.91,4.16,12.12,12.12,0,0,1,1.56,6.26v4.66a12.17,12.17,0,0,1-1.5,6.12,10.18,10.18,0,0,1-4.86,4.15,21.42,21.42,0,0,1-8.72,1.52Zm16.13-3.73a13.1,13.1,0,0,0,5.05-.89,6.82,6.82,0,0,0,3.28-2.8,9.59,9.59,0,0,0,1.15-5v-3.61a9.56,9.56,0,0,0-1-4.64,7.08,7.08,0,0,0-3.14-2.92,12.16,12.16,0,0,0-5.31-1H405.55v20.91Z"/><path class="cls-2" d="M448.58,517.36V489h27.48v3.77H454.34v7.82h18v3.57h-18v9.44h22.45v3.77Z"/><path class="cls-2" d="M518,517.36V489h5.8v28.37Z"/><path class="cls-2" d="M543,517.36V489h8.47l10.94,22.74.33,1h.2l.37-1L574.17,489h8.47v28.37h-5.52l0-21.56.08-2.11H577l-.65,1.75-10.86,21.92H560.1l-10.86-22-.68-1.75h-.13l0,2.11v21.6Z"/><path class="cls-2" d="M616.76,517.81a27.34,27.34,0,0,1-9.16-1.34,11.17,11.17,0,0,1-5.65-4.13,12.21,12.21,0,0,1-1.93-7.1v-4.05a12.24,12.24,0,0,1,1.93-7.13A11,11,0,0,1,607.6,490a32.34,32.34,0,0,1,18.29,0,11.27,11.27,0,0,1,5.68,4.11,12,12,0,0,1,2,7.09v4.09a12.14,12.14,0,0,1-1.94,7.1,11.35,11.35,0,0,1-5.67,4.13A27.38,27.38,0,0,1,616.76,517.81Zm0-3.81a16.61,16.61,0,0,0,6-1,7.45,7.45,0,0,0,3.69-2.92,9.13,9.13,0,0,0,1.26-5v-3.77a9.28,9.28,0,0,0-1.26-5.06,7.43,7.43,0,0,0-3.69-2.94,19.45,19.45,0,0,0-12,0,7.47,7.47,0,0,0-3.67,2.94,9.38,9.38,0,0,0-1.26,5.1v3.73a9.13,9.13,0,0,0,1.26,5,7.46,7.46,0,0,0,3.71,2.92A16.67,16.67,0,0,0,616.76,514Zm-.41-32.18h5.51l-5.83,5h-4.34Z"/><path class="cls-2" d="M647.84,489h6l11.55,23.91h.2L677.18,489h6l-14.38,28.37h-6.65Z"/><path class="cls-2" d="M699.18,517.36V489h27.48v3.77H704.93v7.82h18v3.57h-18v9.44h22.45v3.77Z"/><path class="cls-2" d="M744.77,517.36V489h5.8v28.37Z"/><path class="cls-2" d="M781.89,517.81a24,24,0,0,1-7.4-1.06,11.88,11.88,0,0,1-5.26-3.16,7.22,7.22,0,0,1-2-5.14l5.71-.57a5.62,5.62,0,0,0,0,1,4,4,0,0,0,.23.93,5.12,5.12,0,0,0,3,3.14,14.12,14.12,0,0,0,5.81,1,12.53,12.53,0,0,0,6.18-1.18,3.54,3.54,0,0,0,2-3.16,3,3,0,0,0-1.4-2.69,11.63,11.63,0,0,0-4.36-1.4l-7.5-1.54a23.59,23.59,0,0,1-5-1.48,6.76,6.76,0,0,1-2.9-2.31,6.24,6.24,0,0,1-1-3.59,6.75,6.75,0,0,1,1.28-4,8.85,8.85,0,0,1,4.27-2.92,23,23,0,0,1,7.82-1.11,24.49,24.49,0,0,1,7.16.93,9.82,9.82,0,0,1,4.74,3,8.88,8.88,0,0,1,2,5.21l-5.39.61a7.62,7.62,0,0,0-.48-2.4,4.73,4.73,0,0,0-2.7-2.77,14.36,14.36,0,0,0-5.33-.79,13,13,0,0,0-4.46.61,4.85,4.85,0,0,0-2.31,1.54,3.36,3.36,0,0,0,.59,4.66,9.28,9.28,0,0,0,4.07,1.41l7.14,1.26a28.53,28.53,0,0,1,5.41,1.52,7.25,7.25,0,0,1,3.14,2.31,6.06,6.06,0,0,1,1,3.67,6.89,6.89,0,0,1-1.62,4.64,9.86,9.86,0,0,1-4.78,2.83A27,27,0,0,1,781.89,517.81Z"/><path class="cls-1" d="M235,569.42a16.6,16.6,0,0,1-6.39-1.09,8.42,8.42,0,0,1-4-3.22,9.46,9.46,0,0,1-1.37-5.22v-1.61A9.59,9.59,0,0,1,224.6,553a8.16,8.16,0,0,1,4-3.2,17.1,17.1,0,0,1,6.42-1.07,15.91,15.91,0,0,1,5.14.82,9.75,9.75,0,0,1,3.92,2.43,6.79,6.79,0,0,1,1.85,3.82l-3.93.37a7.13,7.13,0,0,0-.23-.7c-.1-.24-.21-.47-.32-.68a5.55,5.55,0,0,0-2.46-2.54,8.83,8.83,0,0,0-4.09-.85,10,10,0,0,0-4.15.78,5.52,5.52,0,0,0-2.57,2.28,7.34,7.34,0,0,0-.86,3.66V560a7.1,7.1,0,0,0,.88,3.69,5.49,5.49,0,0,0,2.55,2.24,10,10,0,0,0,4.15.76,9.07,9.07,0,0,0,4.21-.89,5.1,5.1,0,0,0,2.45-2.7,5.23,5.23,0,0,0,.26-.73,7.78,7.78,0,0,0,.2-.76l4,.4a7.42,7.42,0,0,1-1.89,4.16,9,9,0,0,1-3.89,2.45A16.93,16.93,0,0,1,235,569.42Z"/><path class="cls-1" d="M275.1,555a5.1,5.1,0,0,1-3.33,4.94,10,10,0,0,1-3.91.69h-9.74v8.5H254V549h13.64a10.24,10.24,0,0,1,4,.71,5.73,5.73,0,0,1,2.54,2,5.18,5.18,0,0,1,.89,3Zm-4-.25a2.76,2.76,0,0,0-1-2.27,4.37,4.37,0,0,0-2.86-.84h-9.08v6.44h9.05a4.39,4.39,0,0,0,2.86-.85,2.76,2.76,0,0,0,1.05-2.28Zm-.95,14.38L264,559.8l3.71-.55,6.83,9.85Z"/><path class="cls-1" d="M282.62,569.1V549h19.47v2.67H286.7v5.54h12.78v2.53H286.7v6.69h15.91v2.67Z"/><path class="cls-1" d="M321.16,569.42a16.6,16.6,0,0,1-6.39-1.09,8.42,8.42,0,0,1-4-3.22,9.45,9.45,0,0,1-1.36-5.22v-1.61a9.58,9.58,0,0,1,1.36-5.27,8.16,8.16,0,0,1,4-3.2,17.1,17.1,0,0,1,6.42-1.07,15.87,15.87,0,0,1,5.14.82,9.68,9.68,0,0,1,3.92,2.43,6.72,6.72,0,0,1,1.85,3.82l-3.93.37a5.19,5.19,0,0,0-.23-.7,6.1,6.1,0,0,0-.32-.68,5.53,5.53,0,0,0-2.45-2.54,8.86,8.86,0,0,0-4.09-.85,10,10,0,0,0-4.15.78,5.47,5.47,0,0,0-2.57,2.28,7.24,7.24,0,0,0-.87,3.66V560a7.2,7.2,0,0,0,.88,3.69,5.51,5.51,0,0,0,2.56,2.24,10,10,0,0,0,4.15.76,9.06,9.06,0,0,0,4.2-.89,5.16,5.16,0,0,0,2.46-2.7c.09-.23.18-.47.26-.73s.14-.51.2-.76l4,.4a7.48,7.48,0,0,1-1.88,4.16,9,9,0,0,1-3.89,2.45A17,17,0,0,1,321.16,569.42Z"/><path class="cls-1" d="M340.2,569.1V549h4.11v20.1Z"/><path class="cls-1" d="M368.75,548.11,356,570.17h-3.65l12.75-22.06Z"/><path class="cls-1" d="M378,569.1V549h6l7.75,16.11.23.72h.15l.25-.72L400.11,549h6v20.1h-3.9l0-15.27.06-1.5h-.12l-.46,1.24L394,569.1h-3.82l-7.69-15.56L382,552.3h-.09l0,1.5v15.3Z"/><path class="cls-1" d="M424,569.42a17.16,17.16,0,0,1-5.25-.75,8.41,8.41,0,0,1-3.73-2.24,5.12,5.12,0,0,1-1.39-3.64l4.05-.41a3.45,3.45,0,0,0,0,.72,2.89,2.89,0,0,0,.16.66,3.67,3.67,0,0,0,2.11,2.23,10,10,0,0,0,4.12.73,9,9,0,0,0,4.38-.83,2.51,2.51,0,0,0,1.42-2.24,2.14,2.14,0,0,0-1-1.91,8.33,8.33,0,0,0-3.09-1l-5.31-1.09a16.63,16.63,0,0,1-3.54-1,4.78,4.78,0,0,1-2.06-1.64,4.44,4.44,0,0,1-.69-2.54,4.75,4.75,0,0,1,.91-2.83,6.25,6.25,0,0,1,3-2.07,16.31,16.31,0,0,1,5.54-.79,17.32,17.32,0,0,1,5.07.66,7,7,0,0,1,3.36,2.11,6.33,6.33,0,0,1,1.39,3.69l-3.82.44a5.51,5.51,0,0,0-.34-1.7,3.37,3.37,0,0,0-1.91-2,10.31,10.31,0,0,0-3.78-.56,9.49,9.49,0,0,0-3.16.43,3.6,3.6,0,0,0-1.64,1.1,2.38,2.38,0,0,0,.42,3.3,6.56,6.56,0,0,0,2.89,1l5.05.89a20.78,20.78,0,0,1,3.84,1.08,5.13,5.13,0,0,1,2.22,1.64,4.26,4.26,0,0,1,.75,2.6,4.87,4.87,0,0,1-1.15,3.29,7,7,0,0,1-3.39,2A19.21,19.21,0,0,1,424,569.42Z"/><path class="cls-1" d="M462.92,569.1h-4.05V552.59a16.75,16.75,0,0,1-3,1.22,21.8,21.8,0,0,1-3.72.82v-3a19.54,19.54,0,0,0,4.09-1,13.73,13.73,0,0,0,3.09-1.62h3.59Z"/><path class="cls-1" d="M470.1,549h17.83v.37a6.16,6.16,0,0,1-.66,2.73,15.09,15.09,0,0,1-1.62,2.59c-.64.82-1.52,1.84-2.63,3q-2,2.26-3.22,3.84a16.43,16.43,0,0,0-2.05,3.49,10,10,0,0,0-.85,4h-4.19a9.93,9.93,0,0,1,1.05-4.59,18.8,18.8,0,0,1,2.54-3.91c1-1.14,2.2-2.46,3.68-3.93,1.2-1.25,2.08-2.2,2.62-2.87a3.42,3.42,0,0,0,.88-1.81H470.1Z"/><path class="cls-1" d="M493.88,566.35h3.73v2.75h-3.73Z"/><path class="cls-1" d="M515.36,569.1h-4.05V552.59a16.75,16.75,0,0,1-3,1.22,21.8,21.8,0,0,1-3.72.82v-3a19.54,19.54,0,0,0,4.09-1,13.52,13.52,0,0,0,3.09-1.62h3.59Z"/><path class="cls-1" d="M543,562.33a7.56,7.56,0,0,1-.95,4,5.79,5.79,0,0,1-3,2.38,14.7,14.7,0,0,1-5.32.81,15.93,15.93,0,0,1-5.09-.71,6,6,0,0,1-3.07-2.11,5.81,5.81,0,0,1-1-3.47l3.8-.52a5.86,5.86,0,0,0,0,.75,3.44,3.44,0,0,0,.16.69,2.59,2.59,0,0,0,.87,1.36,4.09,4.09,0,0,0,1.65.78,10.86,10.86,0,0,0,2.47.24,9.83,9.83,0,0,0,2.72-.33,3.91,3.91,0,0,0,1.84-1.11,3.33,3.33,0,0,0,.79-2.06v-.66a3.55,3.55,0,0,0-.48-1.81,3.42,3.42,0,0,0-1.66-1.37,8.3,8.3,0,0,0-3.26-.53,11.19,11.19,0,0,0-3,.35,3.58,3.58,0,0,0-2.11,1.23v.37h-3.7l.72-11.6h16.22v3h-12.4l-.35,5.37a6.49,6.49,0,0,1,2.33-1,14.28,14.28,0,0,1,3.36-.37,15,15,0,0,1,4.06.53,6.49,6.49,0,0,1,3.12,1.93,5.63,5.63,0,0,1,1.23,3.86Z"/><path class="cls-1" d="M559.27,548.74a13.66,13.66,0,0,1,5.28.89,7.06,7.06,0,0,1,3.15,2.43,6.76,6.76,0,0,1,1.13,3.6v4.77a11.32,11.32,0,0,1-.83,4.45,7.31,7.31,0,0,1-3,3.31,10.82,10.82,0,0,1-5.8,1.35,13.27,13.27,0,0,1-4.28-.65,6.59,6.59,0,0,1-3-2,5.94,5.94,0,0,1-1.28-3.44l3.65-.43a5.88,5.88,0,0,0,.26,1.35,3.08,3.08,0,0,0,1.62,1.71,7.22,7.22,0,0,0,3,.56,6.29,6.29,0,0,0,3.35-.77,4.07,4.07,0,0,0,1.71-2,8.51,8.51,0,0,0,.48-3v-1.78a4.82,4.82,0,0,1-2.28,2.06,9.85,9.85,0,0,1-4.18.76,12.29,12.29,0,0,1-4.85-.81,5.66,5.66,0,0,1-2.71-2.15,5.83,5.83,0,0,1-.85-3.19v-.43a5.9,5.9,0,0,1,1.06-3.39,6.85,6.85,0,0,1,3.12-2.31A14,14,0,0,1,559.27,548.74Zm.08,2.67a7.23,7.23,0,0,0-3.26.61,3.57,3.57,0,0,0-1.65,1.52,4.56,4.56,0,0,0-.46,2v.23a3.91,3.91,0,0,0,.54,1.94,3.46,3.46,0,0,0,1.65,1.36,7.39,7.39,0,0,0,3,.52,8.08,8.08,0,0,0,3.15-.53,3.93,3.93,0,0,0,1.79-1.44,3.71,3.71,0,0,0,.57-2v-.23a1,1,0,0,0,0-.19,1,1,0,0,1,0-.19,3.68,3.68,0,0,0-.61-1.73,3.83,3.83,0,0,0-1.68-1.34A7.28,7.28,0,0,0,559.35,551.41Z"/><path class="cls-2" d="M646.12,197A95.47,95.47,0,0,0,611.5,174.6l-5.72-2.28,3.82-4.95a103.75,103.75,0,0,0,20.53-62A102.29,102.29,0,0,0,599,31.2,103.78,103.78,0,0,0,524.38,0H422.17L270.8,156.19,119.38,0V375.49L165,321.27a42.21,42.21,0,0,0,9.9-26.82l1.42-177.52,82.85,87.13a16.69,16.69,0,0,0,23.82.37L406,82.79v80.92a42.23,42.23,0,0,0,12.62,30.11l32.46,31.9V44.13h71.57c34.36,0,63.23,28.12,62.57,62.47a60.88,60.88,0,0,1-60.86,60l-66.55.08,33.31,32.44a42.18,42.18,0,0,0,29.45,12h50c32.91,0,60.78,25.73,61.77,58.63a61,61,0,0,1-60.83,62.73l-120.45,0V265.32l-79.85-77.81a15.78,15.78,0,0,0-22.1.07l-76.86,75.87v.34H272V377h37a42.21,42.21,0,0,0,30.18-12.7l32.15-32.87H314.07V276.2l46.1-45.1.37.38L406,275.24V377h163.9c58.25,0,106.72-46.58,107-104.84C677.05,243.79,666.4,216.94,646.12,197Z"/></g></g></svg>