<svg xmlns="http://www.w3.org/2000/svg" viewBox="0 0 878.28 152.97"><defs><style>.cls-1{fill:#f2f4f5;}.cls-2{fill:#c9973b;}</style></defs><title>Ativo 8</title><g id="Camada_2" data-name="Camada 2"><g id="Camada_1-2" data-name="Camada 1"><path class="cls-1" d="M293,20.6V62h-4.14a2.44,2.44,0,0,1-2.76-2.77V29.17L269.52,48.9,253,29.17V59.25A2.45,2.45,0,0,1,250.19,62h-4.14V20.6H253l16.56,19.73L286.09,20.6Z"/><path class="cls-1" d="M322,20.6h-6.91L295.81,62h4.08A4.28,4.28,0,0,0,304,59.25l14.61-31.34,14.61,31.34A4.3,4.3,0,0,0,337.28,62h4.08Z"/><path class="cls-1" d="M630.08,20.6h-6.91L603.85,62h4.08A4.3,4.3,0,0,0,612,59.25l14.6-31.34,14.61,31.34A4.3,4.3,0,0,0,645.32,62h4.08Z"/><path class="cls-1" d="M859,20.6h-6.9L832.72,62h4.09a4.28,4.28,0,0,0,4.08-2.77L855.5,27.91l14.61,31.34A4.29,4.29,0,0,0,874.2,62h4.08Z"/><path class="cls-1" d="M371.25,44.05h1.24c7.8,0,11.72-3.88,11.72-11.73S380.29,20.6,372.49,20.6H344.16V62h4.17c1.82,0,2.73-.91,2.73-2.77V26.13h20c4.17,0,6.24,2.07,6.24,6.19s-2.07,6.24-6.24,6.24H358.65l17.22,20.68C377.44,61.1,379.09,62,381,62h5.33Z"/><path class="cls-1" d="M680.37,44.05h1.24c7.8,0,11.72-3.88,11.72-11.73S689.41,20.6,681.61,20.6H653.28V62h4.17c1.82,0,2.73-.91,2.73-2.77V26.13h20c4.17,0,6.24,2.07,6.24,6.19s-2.07,6.24-6.24,6.24H667.77L685,59.24c1.57,1.86,3.22,2.77,5.08,2.77h5.33Z"/><path class="cls-1" d="M427.52,59.25V62H402.67q-14.49,0-14.49-14.5V35.1q0-14.51,14.49-14.5h24.16v2.77a2.44,2.44,0,0,1-2.76,2.75h-20q-9,0-9,9V47.52q0,9,9,9h20.71A2.44,2.44,0,0,1,427.52,59.25Z"/><path class="cls-1" d="M438.11,23.37V62H434a2.45,2.45,0,0,1-2.77-2.77V20.6h4.14A2.45,2.45,0,0,1,438.11,23.37Z"/><path class="cls-1" d="M481.07,59.25V62H443.8V20.6h4.14a2.44,2.44,0,0,1,2.76,2.77V56.49h27.61A2.44,2.44,0,0,1,481.07,59.25Z"/><path class="cls-1" d="M490.79,23.37V62h-4.14a2.44,2.44,0,0,1-2.76-2.77V20.6H488A2.44,2.44,0,0,1,490.79,23.37Z"/><path class="cls-1" d="M538.71,35.1V47.52q0,14.5-14.5,14.5h-13.8q-14.51,0-14.5-14.5V35.1q0-14.51,14.5-14.5h13.8Q538.7,20.6,538.71,35.1Zm-6.91,0q0-9-9-9H511.78c-6,0-9,3-9,9V47.52c0,6,3,9,9,9h11.05q9,0,9-9Z"/><path class="cls-1" d="M603.58,50.8Q603.58,62,592.37,62h-30.2V20.6h29.51q11.21,0,11.22,11.22c0,4.77-1.67,7.88-4.9,9.37C601.69,42.52,603.58,45.74,603.58,50.8ZM569.07,38.55h20.71q6.21,0,6.21-6.21t-6.21-6.22H569.07Zm27.61,11.73q0-6.21-6.21-6.21h-21.4V56.49h21.4Q596.68,56.49,596.68,50.28Z"/><path class="cls-1" d="M739.62,50.8Q739.62,62,728.4,62H698.2V20.6h29.51q11.22,0,11.22,11.22c0,4.77-1.67,7.88-4.89,9.37C737.72,42.52,739.62,45.74,739.62,50.8ZM705.1,38.55h20.71q6.21,0,6.21-6.21t-6.21-6.22H705.1Zm27.61,11.73q0-6.21-6.21-6.21H705.1V56.49h21.4Q732.71,56.49,732.71,50.28Z"/><path class="cls-1" d="M786.38,35.1V47.52q0,14.5-14.5,14.5h-13.8q-14.51,0-14.5-14.5V35.1q0-14.51,14.5-14.5h13.8Q786.37,20.6,786.38,35.1Zm-6.9,0q0-9-9-9h-11q-9,0-9,9V47.52q0,9,9,9h11q9,0,9-9Z"/><path class="cls-1" d="M831.76,50.28Q831.76,62,820,62H791V59.25a2.45,2.45,0,0,1,2.76-2.76h24.85q6.21,0,6.22-6.21t-6.22-6.21H802.08q-11.75,0-11.74-11.73T802.08,20.6h28.3v2.77a2.44,2.44,0,0,1-2.77,2.75H803.46q-6.21,0-6.21,6.22t6.21,6.21H820Q831.75,38.55,831.76,50.28Z"/><path class="cls-2" d="M259.46,98.6a18.56,18.56,0,0,1-7.16-1.23,9.39,9.39,0,0,1-4.47-3.6,10.63,10.63,0,0,1-1.53-5.86v-1.8a10.74,10.74,0,0,1,1.53-5.9,9.26,9.26,0,0,1,4.47-3.59,19.28,19.28,0,0,1,7.19-1.19,17.65,17.65,0,0,1,5.76.92,10.81,10.81,0,0,1,4.39,2.72,7.6,7.6,0,0,1,2.08,4.27l-4.41.42a6.48,6.48,0,0,0-.26-.78,6.69,6.69,0,0,0-.35-.76A6.28,6.28,0,0,0,264,79.37a9.92,9.92,0,0,0-4.59-1,11.22,11.22,0,0,0-4.65.87,6.17,6.17,0,0,0-2.88,2.56,8.18,8.18,0,0,0-1,4.1v2.12a8.05,8.05,0,0,0,1,4.14,6.22,6.22,0,0,0,2.86,2.51,11.26,11.26,0,0,0,4.65.85,10,10,0,0,0,4.71-1,5.78,5.78,0,0,0,2.76-3c.1-.26.2-.53.29-.82s.16-.58.22-.85l4.47.45a8.43,8.43,0,0,1-2.1,4.66,10.13,10.13,0,0,1-4.36,2.74A18.74,18.74,0,0,1,259.46,98.6Z"/><path class="cls-2" d="M297.55,98.6a21.61,21.61,0,0,1-7.27-1.07,8.87,8.87,0,0,1-4.49-3.28,9.69,9.69,0,0,1-1.53-5.63V85.4a9.77,9.77,0,0,1,1.53-5.66,8.78,8.78,0,0,1,4.49-3.26,25.66,25.66,0,0,1,14.53,0,8.94,8.94,0,0,1,4.5,3.26,9.57,9.57,0,0,1,1.56,5.63v3.25a9.62,9.62,0,0,1-1.54,5.63,9,9,0,0,1-4.51,3.28A21.61,21.61,0,0,1,297.55,98.6Zm0-3a13.17,13.17,0,0,0,4.76-.75,6,6,0,0,0,2.93-2.32,7.3,7.3,0,0,0,1-4v-3a7.44,7.44,0,0,0-1-4,5.87,5.87,0,0,0-2.93-2.33,15.35,15.35,0,0,0-9.54,0,5.91,5.91,0,0,0-2.91,2.33,7.5,7.5,0,0,0-1,4v3a7.3,7.3,0,0,0,1,4,6,6,0,0,0,2.95,2.32A13.17,13.17,0,0,0,297.55,95.57Z"/><path class="cls-2" d="M348.32,82.41a5.89,5.89,0,0,1-.95,3.33A6,6,0,0,1,344.59,88a11.36,11.36,0,0,1-4.38.77H329.3v9.52h-4.6V75.72H340a11.29,11.29,0,0,1,4.48.79,6.37,6.37,0,0,1,2.85,2.22,5.75,5.75,0,0,1,1,3.39Zm-4.51-.29a3.11,3.11,0,0,0-1.14-2.54,4.94,4.94,0,0,0-3.2-.93H329.3v7.2h10.14a5,5,0,0,0,3.2-.94,3.14,3.14,0,0,0,1.17-2.56Zm-1.06,16.12-6.91-10.42,4.15-.61,7.65,11Z"/><path class="cls-2" d="M385.19,82.41a5.89,5.89,0,0,1-.95,3.33A6,6,0,0,1,381.45,88a11.31,11.31,0,0,1-4.37.77H366.17v9.52h-4.6V75.72h15.28a11.35,11.35,0,0,1,4.49.79,6.37,6.37,0,0,1,2.85,2.22,5.82,5.82,0,0,1,1,3.39Zm-4.51-.29a3.11,3.11,0,0,0-1.14-2.54,4.94,4.94,0,0,0-3.2-.93H366.17v7.2h10.14a5,5,0,0,0,3.2-.94,3.14,3.14,0,0,0,1.17-2.56Zm-1.06,16.12L372.7,87.82l4.15-.61,7.66,11Z"/><path class="cls-2" d="M398.44,98.24V75.72h21.81v3H403v6.21h14.32v2.83H403v7.5h17.82v3Z"/><path class="cls-2" d="M442.45,98.24V78.81H432.9V75.72h23.71v3.09h-9.56V98.24Z"/><path class="cls-2" d="M480.45,98.6a21.57,21.57,0,0,1-7.27-1.07,8.83,8.83,0,0,1-4.49-3.28,9.69,9.69,0,0,1-1.53-5.63V85.4a9.77,9.77,0,0,1,1.53-5.66,8.74,8.74,0,0,1,4.49-3.26,25.62,25.62,0,0,1,14.52,0,8.92,8.92,0,0,1,4.51,3.26,9.57,9.57,0,0,1,1.56,5.63v3.25a9.62,9.62,0,0,1-1.55,5.63,8.94,8.94,0,0,1-4.5,3.28A21.61,21.61,0,0,1,480.45,98.6Zm0-3a13.21,13.21,0,0,0,4.76-.75,6,6,0,0,0,2.93-2.32,7.3,7.3,0,0,0,1-4v-3a7.44,7.44,0,0,0-1-4,5.87,5.87,0,0,0-2.93-2.33,15.35,15.35,0,0,0-9.54,0,5.82,5.82,0,0,0-2.91,2.33,7.41,7.41,0,0,0-1,4v3a7.22,7.22,0,0,0,1,4,5.9,5.9,0,0,0,2.94,2.32A13.26,13.26,0,0,0,480.45,95.57Z"/><path class="cls-2" d="M531.22,82.41a5.89,5.89,0,0,1-1,3.33A6.06,6.06,0,0,1,527.48,88a11.31,11.31,0,0,1-4.37.77H512.2v9.52h-4.6V75.72h15.28a11.35,11.35,0,0,1,4.49.79,6.49,6.49,0,0,1,2.85,2.22,5.82,5.82,0,0,1,1,3.39Zm-4.51-.29a3.11,3.11,0,0,0-1.14-2.54,4.94,4.94,0,0,0-3.2-.93H512.2v7.2h10.14a5,5,0,0,0,3.2-.94,3.14,3.14,0,0,0,1.17-2.56Zm-1.06,16.12-6.92-10.42,4.15-.61,7.66,11Z"/><path class="cls-2" d="M563.42,98.24V75.72h13a16.87,16.87,0,0,1,6.83,1.19,8.24,8.24,0,0,1,3.9,3.3,9.67,9.67,0,0,1,1.23,5v3.7a9.62,9.62,0,0,1-1.19,4.86A8,8,0,0,1,583.3,97a16.79,16.79,0,0,1-6.91,1.21Zm12.8-3a10.34,10.34,0,0,0,4-.71,5.41,5.41,0,0,0,2.61-2.22,7.63,7.63,0,0,0,.91-4V85.5a7.53,7.53,0,0,0-.82-3.68,5.46,5.46,0,0,0-2.49-2.32,9.53,9.53,0,0,0-4.22-.82H568v16.6Z"/><path class="cls-2" d="M602.19,98.24V75.72H624v3H606.76v6.21h14.31v2.83H606.76v7.5h17.82v3Z"/><path class="cls-2" d="M657.33,98.24V75.72h4.6V98.24Z"/><path class="cls-2" d="M677.12,98.24V75.72h6.72l8.69,18,.25.8H693l.29-.8,8.65-18h6.72V98.24h-4.37l0-17.11.06-1.68h-.13l-.51,1.39L695,98.24h-4.27L682.1,80.8l-.54-1.38h-.1l0,1.67V98.24Z"/><path class="cls-2" d="M735.7,98.6a21.61,21.61,0,0,1-7.27-1.07,8.87,8.87,0,0,1-4.49-3.28,9.69,9.69,0,0,1-1.52-5.63V85.4a9.76,9.76,0,0,1,1.52-5.66,8.78,8.78,0,0,1,4.49-3.26,25.66,25.66,0,0,1,14.53,0,8.94,8.94,0,0,1,4.5,3.26A9.57,9.57,0,0,1,749,85.37v3.25a9.62,9.62,0,0,1-1.54,5.63A8.92,8.92,0,0,1,743,97.53,21.57,21.57,0,0,1,735.7,98.6Zm0-3a13.17,13.17,0,0,0,4.76-.75,5.92,5.92,0,0,0,2.93-2.32,7.22,7.22,0,0,0,1-4v-3a7.35,7.35,0,0,0-1-4,5.83,5.83,0,0,0-2.93-2.33,15.35,15.35,0,0,0-9.54,0A5.91,5.91,0,0,0,728,81.51a7.5,7.5,0,0,0-1,4v3a7.3,7.3,0,0,0,1,4,6,6,0,0,0,3,2.32A13.24,13.24,0,0,0,735.7,95.57ZM735.38,70h4.38l-4.64,4h-3.44Z"/><path class="cls-2" d="M760.38,75.72h4.76l9.17,19h.16l9.2-19h4.76L777,98.24h-5.27Z"/><path class="cls-2" d="M801.14,98.24V75.72H823v3H805.71v6.21H820v2.83H805.71v7.5h17.82v3Z"/><path class="cls-2" d="M837.33,98.24V75.72h4.61V98.24Z"/><path class="cls-2" d="M866.8,98.6a19.22,19.22,0,0,1-5.87-.84,9.6,9.6,0,0,1-4.18-2.51,5.79,5.79,0,0,1-1.56-4.09l4.54-.45a3.64,3.64,0,0,0,0,.81,3.2,3.2,0,0,0,.18.74,4.1,4.1,0,0,0,2.36,2.49,11.24,11.24,0,0,0,4.62.82,10.07,10.07,0,0,0,4.91-.93,2.82,2.82,0,0,0,1.59-2.51A2.38,2.38,0,0,0,872.29,90a9.38,9.38,0,0,0-3.46-1.11l-6-1.22a18.84,18.84,0,0,1-4-1.18,5.3,5.3,0,0,1-2.3-1.83,4.93,4.93,0,0,1-.78-2.85,5.35,5.35,0,0,1,1-3.17,7,7,0,0,1,3.39-2.31,18.16,18.16,0,0,1,6.21-.89,19.47,19.47,0,0,1,5.68.74,7.77,7.77,0,0,1,3.76,2.36,7.14,7.14,0,0,1,1.56,4.14l-4.28.48a6.15,6.15,0,0,0-.38-1.9,3.75,3.75,0,0,0-2.14-2.2,11.42,11.42,0,0,0-4.23-.63,10.19,10.19,0,0,0-3.54.49A3.9,3.9,0,0,0,861,80.13a2.67,2.67,0,0,0,.47,3.7A7.34,7.34,0,0,0,864.74,85l5.67,1a22.3,22.3,0,0,1,4.29,1.21A5.73,5.73,0,0,1,877.2,89,4.84,4.84,0,0,1,878,91.9a5.46,5.46,0,0,1-1.29,3.69A7.82,7.82,0,0,1,873,97.84,21.68,21.68,0,0,1,866.8,98.6Z"/><path class="cls-1" d="M432.6,139.57a13.16,13.16,0,0,1-5.07-.87,6.6,6.6,0,0,1-3.17-2.55,7.54,7.54,0,0,1-1.08-4.15v-1.28a7.64,7.64,0,0,1,1.08-4.18,6.52,6.52,0,0,1,3.17-2.54,13.67,13.67,0,0,1,5.1-.85,12.55,12.55,0,0,1,4.08.65,7.73,7.73,0,0,1,3.11,1.93,5.42,5.42,0,0,1,1.47,3l-3.12.3a4.63,4.63,0,0,0-.19-.56,2.87,2.87,0,0,0-.25-.53,4.39,4.39,0,0,0-2-2,6.91,6.91,0,0,0-3.24-.68,8,8,0,0,0-3.3.62,4.41,4.41,0,0,0-2,1.81,5.75,5.75,0,0,0-.68,2.91v1.5a5.67,5.67,0,0,0,.69,2.93,4.37,4.37,0,0,0,2,1.78,7.87,7.87,0,0,0,3.3.61,7.2,7.2,0,0,0,3.34-.71,4.16,4.16,0,0,0,1.95-2.14c.07-.19.14-.38.2-.58s.11-.41.16-.61l3.17.32a6,6,0,0,1-1.49,3.31,7.24,7.24,0,0,1-3.09,1.93A13.35,13.35,0,0,1,432.6,139.57Z"/><path class="cls-1" d="M464.46,128.1a4.07,4.07,0,0,1-2.65,3.92,7.88,7.88,0,0,1-3.1.55H451v6.75h-3.26v-16h10.83a8.12,8.12,0,0,1,3.18.56,4.55,4.55,0,0,1,2,1.57,4.13,4.13,0,0,1,.71,2.41Zm-3.2-.2a2.2,2.2,0,0,0-.81-1.8,3.41,3.41,0,0,0-2.26-.67H451v5.11h7.18a3.49,3.49,0,0,0,2.27-.67,2.19,2.19,0,0,0,.83-1.81Zm-.75,11.42-4.9-7.39,2.94-.43,5.43,7.82Z"/><path class="cls-1" d="M470.43,139.32v-16h15.46v2.12H473.67v4.4h10.14v2H473.67v5.31H486.3v2.12Z"/><path class="cls-1" d="M501,139.57a13.22,13.22,0,0,1-5.08-.87,6.64,6.64,0,0,1-3.17-2.55A7.54,7.54,0,0,1,491.7,132v-1.28a7.64,7.64,0,0,1,1.08-4.18A6.57,6.57,0,0,1,496,124a13.67,13.67,0,0,1,5.1-.85,12.55,12.55,0,0,1,4.08.65,7.73,7.73,0,0,1,3.11,1.93,5.29,5.29,0,0,1,1.47,3l-3.12.3a4.52,4.52,0,0,0-.18-.56,5.24,5.24,0,0,0-.25-.53,4.39,4.39,0,0,0-2-2,7,7,0,0,0-3.25-.68,8,8,0,0,0-3.3.62,4.41,4.41,0,0,0-2,1.81,5.85,5.85,0,0,0-.68,2.91v1.5a5.58,5.58,0,0,0,.7,2.93,4.3,4.3,0,0,0,2,1.78,7.87,7.87,0,0,0,3.3.61,7.2,7.2,0,0,0,3.34-.71,4.16,4.16,0,0,0,1.95-2.14c.07-.19.14-.38.2-.58s.12-.41.16-.61l3.17.32a6,6,0,0,1-1.49,3.31A7.12,7.12,0,0,1,505.2,139,13.33,13.33,0,0,1,501,139.57Z"/><path class="cls-1" d="M516.14,139.32v-16h3.26v16Z"/><path class="cls-1" d="M538.81,122.65l-10.13,17.51h-2.89l10.12-17.51Z"/><path class="cls-1" d="M546.15,139.32v-16h4.76l6.16,12.79.18.57h.12l.2-.57,6.13-12.79h4.77v16h-3.1l0-12.13,0-1.19h-.09l-.36,1-6.11,12.34h-3L549.68,127l-.38-1h-.07l0,1.19v12.15Z"/><path class="cls-1" d="M582.65,139.57a13.84,13.84,0,0,1-4.16-.59,6.76,6.76,0,0,1-3-1.78,4.09,4.09,0,0,1-1.11-2.9l3.22-.32a2.16,2.16,0,0,0,0,.57,2.27,2.27,0,0,0,.12.53,2.92,2.92,0,0,0,1.68,1.77,8.11,8.11,0,0,0,3.27.58,7.15,7.15,0,0,0,3.48-.66,2,2,0,0,0,1.13-1.78,1.71,1.71,0,0,0-.79-1.52,6.8,6.8,0,0,0-2.45-.79l-4.22-.86a13.77,13.77,0,0,1-2.82-.83,3.85,3.85,0,0,1-1.63-1.3,3.58,3.58,0,0,1-.54-2,3.88,3.88,0,0,1,.71-2.25,5.06,5.06,0,0,1,2.41-1.64,12.78,12.78,0,0,1,4.4-.63,13.77,13.77,0,0,1,4,.53,5.51,5.51,0,0,1,2.66,1.67,5,5,0,0,1,1.11,2.93l-3,.35a4.35,4.35,0,0,0-.28-1.35,2.67,2.67,0,0,0-1.51-1.56,8.09,8.09,0,0,0-3-.45,7.29,7.29,0,0,0-2.51.35,2.71,2.71,0,0,0-1.3.86,1.88,1.88,0,0,0,.33,2.63,5.18,5.18,0,0,0,2.29.79l4,.71a15.51,15.51,0,0,1,3,.86,4.12,4.12,0,0,1,1.77,1.29,3.45,3.45,0,0,1,.59,2.07,3.91,3.91,0,0,1-.91,2.61A5.51,5.51,0,0,1,587,139,15.21,15.21,0,0,1,582.65,139.57Z"/><path class="cls-1" d="M613.57,139.32h-3.22V126.21a13.12,13.12,0,0,1-2.38,1,18.86,18.86,0,0,1-3,.65v-2.35a15.58,15.58,0,0,0,3.25-.83,10.61,10.61,0,0,0,2.45-1.29h2.85Z"/><path class="cls-1" d="M619.27,123.36h14.16v.3a4.85,4.85,0,0,1-.53,2.16,11.35,11.35,0,0,1-1.29,2.05c-.51.66-1.2,1.46-2.08,2.42-1.07,1.2-1.92,2.22-2.56,3a14,14,0,0,0-1.63,2.77,8.08,8.08,0,0,0-.67,3.22h-3.33a7.88,7.88,0,0,1,.84-3.65,14.88,14.88,0,0,1,2-3.1q1.17-1.37,2.92-3.12c1-1,1.65-1.75,2.09-2.28a2.7,2.7,0,0,0,.69-1.44H619.27Z"/><path class="cls-1" d="M638.15,137.13h3v2.19h-3Z"/><path class="cls-1" d="M655.2,139.32H652V126.21a13.56,13.56,0,0,1-2.39,1,18.86,18.86,0,0,1-3,.65v-2.35a15.58,15.58,0,0,0,3.25-.83,10.61,10.61,0,0,0,2.45-1.29h2.85Z"/><path class="cls-1" d="M677.18,133.94a6.1,6.1,0,0,1-.75,3.17,4.68,4.68,0,0,1-2.38,1.89,11.7,11.7,0,0,1-4.23.64,12.7,12.7,0,0,1-4-.56,4.74,4.74,0,0,1-2.44-1.68,4.61,4.61,0,0,1-.8-2.75l3-.41a3.65,3.65,0,0,0,0,.59,2.86,2.86,0,0,0,.12.55,2,2,0,0,0,.7,1.08,3.25,3.25,0,0,0,1.31.61,8.33,8.33,0,0,0,2,.2,8,8,0,0,0,2.15-.26,3.12,3.12,0,0,0,1.46-.88,2.67,2.67,0,0,0,.63-1.64V134a2.86,2.86,0,0,0-.38-1.43,2.67,2.67,0,0,0-1.32-1.09,6.5,6.5,0,0,0-2.59-.42,9.5,9.5,0,0,0-2.36.27,2.87,2.87,0,0,0-1.67,1v.3h-2.94l.57-9.21h12.88v2.35h-9.85L666,130a5.32,5.32,0,0,1,1.85-.8,11.43,11.43,0,0,1,2.67-.29,12,12,0,0,1,3.23.42,5,5,0,0,1,2.47,1.53,4.46,4.46,0,0,1,1,3.06Z"/><path class="cls-1" d="M690.06,123.15a10.82,10.82,0,0,1,4.2.71,5.44,5.44,0,0,1,2.49,1.93,5.24,5.24,0,0,1,.9,2.86v3.78A9,9,0,0,1,697,136a5.79,5.79,0,0,1-2.37,2.62,8.63,8.63,0,0,1-4.6,1.07,10.52,10.52,0,0,1-3.4-.51,5.22,5.22,0,0,1-2.41-1.61,4.66,4.66,0,0,1-1-2.74l2.89-.34a4.61,4.61,0,0,0,.21,1.07,2.42,2.42,0,0,0,1.29,1.36,5.59,5.59,0,0,0,2.4.45,5,5,0,0,0,2.66-.61,3.2,3.2,0,0,0,1.36-1.62,6.75,6.75,0,0,0,.38-2.36v-1.41a3.78,3.78,0,0,1-1.81,1.63,7.79,7.79,0,0,1-3.32.6,10,10,0,0,1-3.85-.63,4.56,4.56,0,0,1-2.15-1.71,4.68,4.68,0,0,1-.68-2.54v-.34a4.7,4.7,0,0,1,.85-2.69,5.42,5.42,0,0,1,2.47-1.83A11.07,11.07,0,0,1,690.06,123.15Zm.07,2.12a5.81,5.81,0,0,0-2.59.48,2.83,2.83,0,0,0-1.31,1.21,3.63,3.63,0,0,0-.36,1.62v.18a3,3,0,0,0,.42,1.54,2.78,2.78,0,0,0,1.31,1.09,6,6,0,0,0,2.42.41,6.12,6.12,0,0,0,2.49-.43,3.09,3.09,0,0,0,1.43-1.14,3,3,0,0,0,.45-1.6v-.19a.53.53,0,0,0,0-.14s0-.09,0-.15a2.86,2.86,0,0,0-.48-1.38,3.11,3.11,0,0,0-1.33-1.06A5.77,5.77,0,0,0,690.13,125.27Z"/><path class="cls-2" d="M213.74,80a38.68,38.68,0,0,0-14-9.11l-2.32-.93,1.54-2a42.12,42.12,0,0,0,8.34-25.16,41.55,41.55,0,0,0-12.65-30.1A42.12,42.12,0,0,0,164.35,0H122.87L61.45,63.38,0,0V152.37l18.49-22a17.09,17.09,0,0,0,4-10.89l.58-72L56.71,82.8a6.76,6.76,0,0,0,9.66.15L116.32,33.6V66.43a17.11,17.11,0,0,0,5.12,12.22l13.17,12.94V17.91h29c13.95,0,25.66,11.41,25.39,25.35a24.69,24.69,0,0,1-24.69,24.35l-27,0,13.51,13.17a17.12,17.12,0,0,0,12,4.86H183.1c13.36,0,24.67,10.44,25.07,23.79a24.78,24.78,0,0,1-24.69,25.46H134.61V107.66l-32.4-31.57a6.4,6.4,0,0,0-9,0L62.05,106.9V107h-.12V153H77a17.09,17.09,0,0,0,12.24-5.15l13-13.34H79v-22.4l18.7-18.3.15.15,18.46,17.76V153h66.5c23.64,0,43.31-18.9,43.42-42.54A42,42,0,0,0,213.74,80Z"/></g></g></svg>