<svg xmlns="http://www.w3.org/2000/svg" viewBox="0 0 348.88 235.9"><defs><style>.cls-1{fill:#c9973b;}</style></defs><title>Símbolo Fundo Transparente</title><g id="Camada_2" data-name="Camada 2"><g id="Camada_1-2" data-name="Camada 1"><path class="cls-1" d="M329.61,123.3a59.77,59.77,0,0,0-21.66-14l-3.58-1.43,2.38-3.1A64.85,64.85,0,0,0,319.6,65.94a64,64,0,0,0-19.51-46.42A65,65,0,0,0,253.43,0h-64L94.75,97.74,0,0V235L28.52,201a26.41,26.41,0,0,0,6.19-16.78L35.6,73.17l51.84,54.52a10.45,10.45,0,0,0,14.91.23l77-76.11v50.63a26.37,26.37,0,0,0,7.9,18.84l20.31,20V27.61h44.78c21.5,0,39.57,17.6,39.15,39.1a38.08,38.08,0,0,1-38.08,37.55l-41.64,0,20.84,20.3a26.38,26.38,0,0,0,18.43,7.5h31.3c20.59,0,38,16.1,38.66,36.68A38.21,38.21,0,0,1,283,208.05H207.58V166l-50-48.69a9.88,9.88,0,0,0-13.83,0L95.69,164.85v.21H95.5V235.9h23.16a26.41,26.41,0,0,0,18.88-8l20.12-20.57H121.83V172.83l28.84-28.22.24.24,28.46,27.39V235.9H281.93c36.45,0,66.78-29.15,66.95-65.61A64.8,64.8,0,0,0,329.61,123.3Z"/></g></g></svg>