<svg xmlns="http://www.w3.org/2000/svg" viewBox="0 0 441.39 441.39"><defs><style>.cls-1{fill:#0f2032;}.cls-2{fill:#c9973b;}</style></defs><title>Símbolo Fundo Azul</title><g id="Camada_2" data-name="Camada 2"><g id="Camada_1-2" data-name="Camada 1"><circle class="cls-1" cx="220.69" cy="220.69" r="220.69"/><path class="cls-2" d="M388.44,227.73a59.84,59.84,0,0,0-21.66-14l-3.58-1.42,2.39-3.1a64.86,64.86,0,0,0,12.85-38.8A64,64,0,0,0,358.93,124a64.93,64.93,0,0,0-46.66-19.52h-64l-94.72,97.73L58.83,104.45V339.39l28.52-33.93a26.3,26.3,0,0,0,6.19-16.78l.9-111.08,51.84,54.52a10.44,10.44,0,0,0,14.9.23l77-76.11v50.63a26.43,26.43,0,0,0,7.9,18.84l20.31,20V132H311.2c21.5,0,39.56,17.6,39.15,39.09a38.09,38.09,0,0,1-38.08,37.56l-41.65.05L291.46,229a26.4,26.4,0,0,0,18.43,7.5h31.3c20.6,0,38,16.1,38.66,36.68a38.2,38.2,0,0,1-38.07,39.26l-75.37,0v-42l-50-48.69a9.88,9.88,0,0,0-13.83.05l-48.1,47.47v.21h-.19v70.84h23.16a26.43,26.43,0,0,0,18.89-7.95l20.11-20.57H180.67V277.26L209.51,249l.24.23,28.45,27.39v63.67H340.76c36.45,0,66.78-29.16,67-65.61A64.8,64.8,0,0,0,388.44,227.73Z"/></g></g></svg>