<svg xmlns="http://www.w3.org/2000/svg" viewBox="0 0 441.39 441.39"><defs><style>.cls-1{fill:#f2f4f5;}.cls-2{fill:#c9973b;}</style></defs><title>Símbolo Fundo Branco</title><g id="Camada_2" data-name="Camada 2"><g id="Camada_1-2" data-name="Camada 1"><circle class="cls-1" cx="220.69" cy="220.69" r="220.69"/><path class="cls-2" d="M388.44,227.69a60,60,0,0,0-21.66-14l-3.58-1.43,2.39-3.09a64.9,64.9,0,0,0,12.85-38.8,64,64,0,0,0-19.51-46.41,64.93,64.93,0,0,0-46.66-19.52h-64l-94.72,97.73L58.83,104.42V339.36l28.52-33.93a26.32,26.32,0,0,0,6.19-16.78l.9-111.09,51.84,54.52a10.44,10.44,0,0,0,14.9.24l77-76.12v50.64a26.44,26.44,0,0,0,7.9,18.84l20.31,20V132H311.2c21.5,0,39.56,17.59,39.15,39.09a38.1,38.1,0,0,1-38.08,37.56l-41.65.05L291.46,229a26.39,26.39,0,0,0,18.43,7.49h31.3c20.6,0,38,16.11,38.66,36.69a38.2,38.2,0,0,1-38.07,39.25H266.41v-42l-50-48.69a9.87,9.87,0,0,0-13.83,0l-48.1,47.48v.21h-.19v70.83h23.16a26.42,26.42,0,0,0,18.89-7.94l20.11-20.58H180.67V277.23L209.51,249l.24.23,28.45,27.39v63.66H340.76c36.45,0,66.78-29.15,67-65.6A64.83,64.83,0,0,0,388.44,227.69Z"/></g></g></svg>